<svg width="128" height="128" viewBox="0 0 128 128" fill="none" xmlns="http://www.w3.org/2000/svg">
<g clip-path="url(#clip0_1079_7054)">
<path opacity="0.694" d="M63.9999 127.207C94.3425 127.207 118.94 123.633 118.94 119.223C118.94 114.813 94.3425 111.239 63.9999 111.239C33.6573 111.239 9.05981 114.813 9.05981 119.223C9.05981 123.633 33.6573 127.207 63.9999 127.207Z" fill="#808080"/>
<path d="M64.0001 118.529C95.8895 118.529 121.741 92.6761 121.741 60.7855C121.741 28.8949 95.8895 3.04248 64.0001 3.04248C32.1107 3.04248 6.25928 28.8949 6.25928 60.7855C6.25928 92.6761 32.1107 118.529 64.0001 118.529Z" fill="#FFE680" stroke="#5B5F5D" stroke-width="4.5" stroke-linecap="round" stroke-linejoin="round"/>
<path d="M113.581 55.5015C115.292 61.7623 114.292 66.941 112.949 72.1667" stroke="white" stroke-width="2.99696" stroke-linecap="round" stroke-linejoin="round"/>
<path d="M111.722 50.3835C112.68 50.4752 113.531 49.773 113.622 48.8152C113.714 47.8573 113.012 47.0065 112.054 46.9148C111.096 46.8231 110.245 47.5253 110.154 48.4831C110.062 49.4409 110.764 50.2918 111.722 50.3835Z" fill="white" stroke="white" stroke-width="0.499494"/>
<path fill-rule="evenodd" clip-rule="evenodd" d="M16.3877 40.0115C16.4261 40.0353 19.6987 27.7302 36.527 19.0146C44.0296 15.1442 53.3596 12.7254 63.7021 12.9985C63.8298 12.9985 63.9573 13.0088 64.0846 13.0099C74.6502 13.3504 84.04 16.3539 91.5016 20.3598C99.1464 24.4595 104.4 29.4271 107.595 33.2771C110.798 37.1353 111.937 39.7832 111.621 40.0116C111.209 40.3103 109.379 38.1819 105.809 34.9948C102.221 31.7917 96.9163 27.6125 89.5887 24.1439C82.4388 20.7635 73.6752 18.2133 63.9288 17.9076C63.8114 17.9076 63.6938 17.8972 63.5761 17.8972C54.0457 17.6591 45.4587 19.6397 38.4073 22.8688C30.9325 26.2751 25.5325 30.9833 22.0717 34.438C18.5619 37.9417 16.835 40.2922 16.3877 40.0111V40.0115Z" fill="white"/>
<path fill-rule="evenodd" clip-rule="evenodd" d="M65.6088 61.4899C42.6182 62.2073 32.7518 84.1014 26.9845 103.411C20.5209 125.051 31.1201 148.036 47.8323 159.195C64.2699 170.171 88.7851 159.603 97.3459 145.204C105.353 131.735 106.323 113.665 102.634 98.4244C98.6008 81.7622 82.9783 60.9477 65.6088 61.4899Z" fill="#FFDD55" stroke="#5B5F5D" stroke-width="4.4"/>
<path fill-rule="evenodd" clip-rule="evenodd" d="M65.0829 63.5836C43.3322 65.0138 33.9184 86.0152 28.6835 103.727C23.4491 121.438 29.858 140.064 41.5961 151.909C56.9944 146.416 94.3253 122.482 65.0829 63.5836Z" fill="#F4D34F"/>
<path fill-rule="evenodd" clip-rule="evenodd" d="M60.1424 56.6067C62.9982 55.3587 65.347 53.7096 67.7147 52.0753L67.3016 50.4431C65.3245 52.9079 61.3595 54.5251 60.1424 56.6067Z" stroke="#5B5F5D" stroke-width="4.4" stroke-linecap="round" stroke-linejoin="round"/>
<path fill-rule="evenodd" clip-rule="evenodd" d="M61.5905 55.0954C61.5905 55.0954 60.5275 65.1525 55.396 69.2075C47.2822 75.6192 22.7332 79.4108 20.9084 81.7354C20.9084 81.7354 31.0449 59.0042 40.059 54.0498C52.3793 47.2785 61.5905 55.0954 61.5905 55.0954Z" fill="#00AA44" stroke="#5B5F5D" stroke-width="4.4" stroke-linecap="round" stroke-linejoin="round"/>
<path fill-rule="evenodd" clip-rule="evenodd" d="M67.1006 63.3394C68.3708 56.7412 68.2273 49.7248 68.6423 43.0084L70.2741 44.0826C70.4644 50.5166 70.3045 56.8266 70.2934 63.4364L67.1006 63.3394Z" stroke="#5B5F5D" stroke-width="4.4" stroke-linecap="round" stroke-linejoin="round"/>
<path d="M82.4856 80.439C89.765 86.627 91.6032 95.9351 93.188 104.134" stroke="white" stroke-width="2.5" stroke-linecap="round" stroke-linejoin="round"/>
<path d="M78.5413 78.9016C79.4288 78.738 80.0156 77.8858 79.852 76.9983C79.6884 76.1107 78.8363 75.5239 77.9488 75.6875C77.0613 75.8511 76.4744 76.7032 76.638 77.5907C76.8016 78.4783 77.6537 79.0652 78.5413 78.9016Z" fill="white"/>
</g>
<defs>
<clipPath id="clip0_1079_7054">
<rect width="128" height="128" fill="white"/>
</clipPath>
</defs>
</svg>
