<svg width="124" height="128" viewBox="0 0 124 128" fill="none" xmlns="http://www.w3.org/2000/svg">
<path opacity="0.694" d="M63.1389 127.461C94.3965 127.461 119.736 123.778 119.736 119.236C119.736 114.693 94.3965 111.011 63.1389 111.011C31.8813 111.011 6.54199 114.693 6.54199 119.236C6.54199 123.778 31.8813 127.461 63.1389 127.461Z" fill="#808080"/>
<path d="M61.9999 121.756C94.8509 121.756 121.482 95.1238 121.482 62.2715C121.482 29.4192 94.8509 2.78711 61.9999 2.78711C29.1489 2.78711 2.51782 29.4192 2.51782 62.2715C2.51782 95.1238 29.1489 121.756 61.9999 121.756Z" fill="#FFD479" stroke="#5B5F5D" stroke-width="4.49545" stroke-linecap="round" stroke-linejoin="round"/>
<path d="M113.076 56.8282C114.839 63.2778 113.808 68.6126 112.425 73.996" stroke="white" stroke-width="2.99696" stroke-linecap="round" stroke-linejoin="round"/>
<path d="M111.161 51.5559C112.148 51.6504 113.024 50.9271 113.119 49.9404C113.213 48.9536 112.49 48.0772 111.503 47.9827C110.516 47.8882 109.64 48.6115 109.545 49.5983C109.451 50.585 110.174 51.4615 111.161 51.5559Z" fill="white" stroke="white" stroke-width="0.499494"/>
<path fill-rule="evenodd" clip-rule="evenodd" d="M12.9517 40.8711C12.9912 40.8957 16.3625 28.2195 33.6984 19.2411C41.4271 15.254 51.0385 12.7623 61.693 13.0435C61.8244 13.0435 61.9558 13.0542 62.087 13.0553C72.9712 13.4061 82.6442 16.5002 90.3307 20.6269C98.2061 24.8502 103.618 29.9676 106.91 33.9336C110.209 37.9083 111.382 40.636 111.057 40.8713C110.632 41.179 108.747 38.9865 105.069 35.7033C101.373 32.4037 95.9088 28.0984 88.3602 24.5252C80.9946 21.0428 71.9667 18.4156 61.9265 18.1007C61.8055 18.1007 61.6844 18.09 61.5632 18.09C51.7453 17.8447 42.8994 19.885 35.6353 23.2115C27.9351 26.7205 22.3722 31.5707 18.8071 35.1296C15.1915 38.739 13.4125 41.1604 12.9517 40.8708V40.8711Z" fill="white"/>
<path fill-rule="evenodd" clip-rule="evenodd" d="M65.1236 63.679C39.7786 63.1601 23.7186 83.6002 22.4842 103.15C20.905 128.161 42.7518 144.822 61.972 145.614C82.1244 146.445 105.103 134.721 106.836 104.647C107.97 84.9703 88.1736 64.1509 65.1236 63.679Z" fill="#FF9955" stroke="#5B5F5D" stroke-width="4.4" stroke-linecap="round" stroke-linejoin="round"/>
<path fill-rule="evenodd" clip-rule="evenodd" d="M63.509 69.9372C62.6918 62.6077 62.9283 55.2781 63.6798 47.9486C64.6848 48.3789 65.6899 48.6232 66.6949 50.0652C65.7205 57.1534 65.4408 63.9913 66.9028 70.2018L63.509 69.9372Z" fill="#A05A2C" stroke="#5B5F5D" stroke-width="4.4" stroke-linecap="round" stroke-linejoin="round"/>
<path fill-rule="evenodd" clip-rule="evenodd" d="M19.9624 79.827C29.7786 68.4627 45.7245 71.5338 56.206 67.2935C59.212 66.0774 62.4165 61.0268 62.4165 61.0268C62.4165 61.0268 55.2731 52.55 44.8924 53.5363C31.7566 54.7841 24.6473 67.7934 19.9624 79.827Z" fill="#5AA02C" stroke="#5B5F5D" stroke-width="4.4" stroke-linecap="round" stroke-linejoin="round"/>
<path d="M56.1357 73.577C62.8207 70.5712 68.11 71.105 74.6955 73.2234" stroke="#5B5F5D" stroke-width="4.4" stroke-linecap="round" stroke-linejoin="round"/>
<path fill-rule="evenodd" clip-rule="evenodd" d="M65.3736 65.6791C41.1783 65.1866 25.8456 84.5816 24.6673 103.132C23.9626 114.226 28.1464 123.586 34.6742 130.489C57.7805 133.502 85.5774 93.1721 76.8081 67.9779C73.1439 66.7629 69.3382 65.7596 65.3736 65.6791Z" fill="#F5863C"/>
<path fill-rule="evenodd" clip-rule="evenodd" d="M63.5092 69.9374C62.692 62.6079 62.9285 55.2781 63.6801 47.9487C64.6851 48.379 65.6901 48.6232 66.6951 50.0653C65.7207 57.1535 65.4411 63.9914 66.903 70.2019L63.5092 69.9374Z" fill="#A05A2C" stroke="#5B5F5D" stroke-width="4.4" stroke-linecap="round" stroke-linejoin="round"/>
<path fill-rule="evenodd" clip-rule="evenodd" d="M19.9624 79.8272C29.7786 68.4628 45.7245 71.5339 56.2059 67.2936C59.212 66.0776 62.4165 61.0269 62.4165 61.0269C62.4165 61.0269 55.2731 52.55 44.8924 53.5364C31.7566 54.7843 24.6473 67.7936 19.9624 79.8272Z" fill="#5AA02C" stroke="#5B5F5D" stroke-width="4.4" stroke-linecap="round" stroke-linejoin="round"/>
<path d="M56.1357 73.577C62.8207 70.5712 68.11 71.105 74.6955 73.2235" stroke="#5B5F5D" stroke-width="4.4" stroke-linecap="round" stroke-linejoin="round"/>
<path d="M38.5516 86.9935C33.1161 93.4833 31.9333 102.807 32.2348 105.613" stroke="white" stroke-width="2.95589" stroke-linecap="round" stroke-linejoin="round"/>
<path d="M42.593 84.2773C41.7165 84.2773 41.006 83.5186 41.006 82.5826C41.006 81.6466 41.7165 80.8878 42.593 80.8878C43.4694 80.8878 44.1799 81.6466 44.1799 82.5826C44.1799 83.5186 43.4694 84.2773 42.593 84.2773Z" fill="white"/>
</svg>
