<svg width="124" height="128" viewBox="0 0 124 128" fill="none" xmlns="http://www.w3.org/2000/svg">
<path opacity="0.694" d="M62 127.166C91.504 127.166 115.422 123.69 115.422 119.402C115.422 115.114 91.504 111.638 62 111.638C32.4961 111.638 8.57837 115.114 8.57837 119.402C8.57837 123.69 32.4961 127.166 62 127.166Z" fill="#808080"/>
<path d="M62.0001 122.32C94.9355 122.32 121.635 95.6197 121.635 62.6836C121.635 29.7474 94.9355 3.04736 62.0001 3.04736C29.0647 3.04736 2.36523 29.7474 2.36523 62.6836C2.36523 95.6197 29.0647 122.32 62.0001 122.32Z" fill="#DDE9AF" stroke="#5B5F5D" stroke-width="4.42731" stroke-linecap="round" stroke-linejoin="round"/>
<path fill-rule="evenodd" clip-rule="evenodd" d="M57.0278 65.4874C57.0278 65.4874 45.1709 66.3944 39.9182 64.127C34.04 61.5895 25.6777 51.237 25.6777 51.237C25.6777 51.237 41.1823 47.422 46.441 50.1619C51.9473 53.0308 55.9282 61.0122 57.0278 65.4874Z" fill="#88AA00" stroke="#5B5F5D" stroke-width="4.42731" stroke-linecap="round" stroke-linejoin="round"/>
<path fill-rule="evenodd" clip-rule="evenodd" d="M61.1569 65.3354C61.1569 65.3354 61.3878 62.3618 61.332 60.8748C61.2647 59.086 60.7643 57.3291 60.7193 55.5396C60.662 53.2616 59.5778 50.3614 61.1569 48.7175C61.9289 47.9139 63.7517 47.5268 64.4829 48.3677C65.3508 49.3658 63.5481 50.8941 63.5201 52.216C63.4281 56.5605 63.1075 61.8098 66.1458 64.9856C64.4469 65.3898 62.6423 66.6382 61.1569 65.3354Z" fill="#C87137" stroke="#5B5F5D" stroke-width="4.42731" stroke-linecap="round" stroke-linejoin="round"/>
<path fill-rule="evenodd" clip-rule="evenodd" d="M69.1062 67.8748C62.2029 67.9912 53.3192 71.8785 51.8858 73.6938C46.6031 80.3835 48.0071 84.6655 45.5516 89.9307C42.4971 96.4803 39.3673 101.924 35.142 108.949C34.0191 110.816 33.1393 112.649 32.4617 114.438C41.4557 119.587 51.6366 122.304 62.0004 122.32C74.4222 122.293 86.5255 118.388 96.6207 111.15C94.6735 105.494 89.895 99.7487 86.3689 94.1488C80.7851 85.2812 80.0027 67.7438 69.1062 67.8748Z" fill="#BCD35F" stroke="#5B5F5D" stroke-width="4.42731" stroke-linecap="round" stroke-linejoin="round"/>
<path fill-rule="evenodd" clip-rule="evenodd" d="M68.6344 69.876C62.3483 69.9848 54.2596 73.6156 52.9542 75.3111C48.1438 81.5595 49.422 85.5589 47.1861 90.4767C44.4047 96.5942 41.5544 101.679 37.7068 108.241C36.6843 109.984 35.7362 111.844 35.1191 113.515C39.527 116.104 44.4037 117.713 49.5673 118.81C61.299 107.224 72.6116 85.3269 70.1102 69.9896C69.6416 69.91 69.1509 69.8697 68.6344 69.876Z" fill="#A1B44B"/>
<path d="M74.864 86.7074C76.9932 91.8855 82.7774 104.564 86.2851 107.769" stroke="white" stroke-width="2.95154" stroke-linecap="round" stroke-linejoin="round"/>
<path d="M72.7811 83.6128C73.6914 83.6128 74.4295 82.8747 74.4295 81.9643C74.4295 81.0539 73.6914 80.3159 72.7811 80.3159C71.8708 80.3159 71.1328 81.0539 71.1328 81.9643C71.1328 82.8747 71.8708 83.6128 72.7811 83.6128Z" fill="white"/>
<path d="M113.473 58.1731C115.137 64.261 114.164 69.2967 112.859 74.3781" stroke="white" stroke-width="2.95154" stroke-linecap="round" stroke-linejoin="round"/>
<path d="M111.666 53.1965C112.597 53.2857 113.424 52.6029 113.513 51.6716C113.603 50.7402 112.92 49.9129 111.989 49.8237C111.057 49.7345 110.23 50.4173 110.141 51.3486C110.052 52.28 110.734 53.1074 111.666 53.1965Z" fill="white" stroke="white" stroke-width="0.491923"/>
<path fill-rule="evenodd" clip-rule="evenodd" d="M15.7038 41.441C15.3747 41.2341 16.318 38.4693 19.3428 34.3934C22.3183 30.3839 27.4898 24.9933 35.2568 20.9632C42.5591 17.1897 51.643 14.8308 61.7126 15.0968C61.8368 15.1002 61.9609 15.1038 62.0849 15.1078C72.3713 15.4395 81.5116 18.3671 88.7718 22.2723C96.2104 26.2688 101.318 31.1115 104.419 34.8654C107.527 38.6277 108.623 41.2105 108.305 41.441C107.893 41.7397 106.102 39.6784 102.625 36.5898C99.1303 33.4854 93.9717 29.434 86.8515 26.071C79.9041 22.7938 71.3925 20.3211 61.9285 20.0245C61.8144 20.021 61.7003 20.0178 61.586 20.0149C52.3318 19.7839 43.9939 21.7029 37.1445 24.8328C29.8842 28.1336 24.6322 32.6987 21.2608 36.0478C17.8419 39.4441 16.1509 41.722 15.7038 41.441V41.441Z" fill="white"/>
</svg>
