<svg width="128" height="128" viewBox="0 0 128 128" fill="none" xmlns="http://www.w3.org/2000/svg">
<path opacity="0.694" d="M65.2572 131C96.7121 131 122.211 127.219 122.211 122.556C122.211 117.892 96.7121 114.111 65.2572 114.111C33.8023 114.111 8.30298 117.892 8.30298 122.556C8.30298 127.219 33.8023 131 65.2572 131Z" fill="#808080"/>
<path d="M64.111 125.143C97.1694 125.143 123.969 97.8003 123.969 64.0715C123.969 30.3426 97.1694 3 64.111 3C31.0526 3 4.25342 30.3426 4.25342 64.0715C4.25342 97.8003 31.0526 125.143 64.111 125.143Z" fill="#D9ED88" stroke="#5B5F5D" stroke-width="4.5" stroke-linecap="round" stroke-linejoin="round"/>
<path d="M115.51 58.4828C117.283 65.1045 116.247 70.5817 114.855 76.1087" stroke="white" stroke-width="4.5" stroke-linecap="round" stroke-linejoin="round"/>
<path d="M113.583 53.0698C114.576 53.1668 115.458 52.4242 115.553 51.4111C115.648 50.3981 114.92 49.4982 113.927 49.4012C112.934 49.3042 112.052 50.0469 111.957 51.0599C111.862 52.0729 112.59 52.9728 113.583 53.0698Z" fill="white" stroke="white" stroke-width="4.5"/>
<path fill-rule="evenodd" clip-rule="evenodd" d="M14.7534 42.1004C14.4198 41.8865 15.4421 38.8902 18.6756 34.4723C21.8567 30.1261 27.372 24.2816 35.6414 19.9146C43.4165 15.8248 53.0845 13.269 63.8018 13.5575C63.934 13.5627 64.0661 13.5653 64.1981 13.5694C75.1465 13.9293 84.8772 17.1034 92.6105 21.3368C100.534 25.6693 105.98 30.9188 109.295 34.9871C112.617 39.0641 113.801 41.8616 113.478 42.1003C113.055 42.4134 111.161 40.1594 107.462 36.7848C103.745 33.3936 98.2464 28.9689 90.6484 25.2969C83.2346 21.7181 74.1464 19.0183 64.0383 18.6948C63.9165 18.6897 63.7945 18.6876 63.6725 18.6846C53.7882 18.4326 44.8825 20.5298 37.5701 23.9486C29.8185 27.5553 24.221 32.5394 20.6354 36.197C16.9991 39.9064 15.2129 42.3951 14.7534 42.1004Z" fill="white"/>
<path fill-rule="evenodd" clip-rule="evenodd" d="M11.1016 88.1896L0 99.6891C8.40458 108.395 18.3823 115.301 29.3635 120.013C40.3446 124.725 52.1141 127.15 64 127.15C75.8859 127.15 87.6554 124.725 98.6365 120.013C109.618 115.301 119.595 108.395 128 99.6891L116.94 88.2319C115.267 89.8976 113.522 91.484 111.71 92.9861C109.705 94.632 107.623 96.1732 105.469 97.6038C103.316 99.0344 101.095 100.353 98.8144 101.554C96.5338 102.755 94.1966 103.837 91.8115 104.796C89.4266 105.756 86.9969 106.591 84.5313 107.3C82.0656 108.008 79.5672 108.588 77.0455 109.038C74.5237 109.488 71.9818 109.807 69.4293 109.995C67.6222 110.127 65.8113 110.194 63.9997 110.194C61.4409 110.194 58.8836 110.061 56.3375 109.797C53.7915 109.532 51.2598 109.137 48.7519 108.611C46.244 108.085 43.763 107.429 41.3183 106.647C38.8736 105.864 36.4683 104.956 34.1114 103.925C31.7544 102.894 29.4487 101.741 27.203 100.472C24.9574 99.2024 22.7745 97.8176 20.6625 96.3225C18.5506 94.8275 16.5123 93.2242 14.5552 91.5185C13.3713 90.4458 12.2196 89.3356 11.1016 88.1896Z" fill="#ABC837" stroke="#5B5F5D" stroke-width="4.5" stroke-linecap="round" stroke-linejoin="round"/>
<path fill-rule="evenodd" clip-rule="evenodd" d="M13.5904 88.6967L2.91821 99.6161C14.9573 111.298 28.6258 118.472 42.1388 121.967C49.8492 118.865 56.0288 114.971 62.3803 109.508C60.4554 109.487 58.9954 109.388 57.078 109.213C54.6304 108.962 52.1966 108.586 49.7857 108.087C47.3746 107.587 44.9893 106.965 42.6389 106.222C40.2889 105.479 37.9768 104.616 35.7111 103.637C33.4452 102.658 31.2287 101.564 29.0698 100.359C26.9107 99.1533 24.812 97.8385 22.7814 96.419C20.7515 94.9995 18.7922 93.4771 16.9109 91.8576C15.7726 90.839 14.6653 89.7848 13.5904 88.6967Z" fill="#92AB2E"/>
<path fill-rule="evenodd" clip-rule="evenodd" d="M11.1018 88.1895C12.2198 89.3355 13.3714 90.4457 14.5553 91.5184C16.5125 93.2241 18.5508 94.8274 20.6627 96.3224C22.7747 97.8175 24.9575 99.2023 27.2032 100.472C29.4489 101.741 31.7546 102.894 34.1115 103.925C36.4685 104.956 38.8738 105.864 41.3185 106.646C43.7632 107.429 46.2442 108.084 48.7521 108.611C51.2599 109.136 53.7916 109.532 56.3377 109.797C58.8838 110.061 61.441 110.193 63.9999 110.194C65.8115 110.194 67.6224 110.127 69.4294 109.995C71.982 109.807 74.5239 109.488 77.0456 109.038C79.5673 108.588 82.0658 108.008 84.5315 107.3C86.997 106.591 89.4268 105.756 91.8117 104.796C94.1967 103.837 96.5339 102.755 98.8145 101.554C101.095 100.353 103.316 99.0343 105.47 97.6037C107.623 96.173 109.705 94.6319 111.71 92.986C113.522 91.4839 115.267 89.8975 116.94 88.2317L63.9999 33.3925L11.1018 88.1895Z" fill="#FF7373" stroke="#5B5F5D" stroke-width="4.5" stroke-linecap="round" stroke-linejoin="round"/>
<path fill-rule="evenodd" clip-rule="evenodd" d="M63.9652 36.6667L13.5903 88.6965C33.7928 103.485 46.1625 107.585 63.9515 107.812C80.563 93.3881 87.8186 72.9114 72.5324 45.5155L63.9652 36.6667Z" fill="#F46161"/>
<path fill-rule="evenodd" clip-rule="evenodd" d="M35.7492 82.9001C33.0104 85.994 30.4372 95.9521 35.9947 95.982C41.1494 96.0098 38.4754 85.4957 35.7492 82.9001Z" fill="#5B5F5D"/>
<path fill-rule="evenodd" clip-rule="evenodd" d="M63.6291 77.8094C60.8903 80.9033 58.3171 90.8614 63.8746 90.8912C69.0292 90.919 66.3552 80.405 63.6291 77.8094Z" fill="#5B5F5D"/>
<path fill-rule="evenodd" clip-rule="evenodd" d="M92.1652 83.9182C89.4265 87.012 86.8533 96.9702 92.4107 97C97.5654 97.0278 94.8914 86.5137 92.1652 83.9182Z" fill="#5B5F5D"/>
<path fill-rule="evenodd" clip-rule="evenodd" d="M46.2453 63.0461C43.5065 66.1399 40.9333 76.0981 46.4908 76.1279C51.6454 76.1557 48.9715 65.6417 46.2453 63.0461Z" fill="#5B5F5D"/>
<path fill-rule="evenodd" clip-rule="evenodd" d="M82.6533 61.8584C79.9145 64.9522 77.3413 74.9103 82.8988 74.9402C88.0534 74.968 85.3794 64.4539 82.6533 61.8584Z" fill="#5B5F5D"/>
<path fill-rule="evenodd" clip-rule="evenodd" d="M65.2695 46.5862C62.5307 49.68 59.9575 59.6381 65.515 59.668C70.6696 59.6958 67.9956 49.1817 65.2695 46.5862Z" fill="#5B5F5D"/>
<path d="M97.0222 78.9116C100.092 82.5424 106.469 89.7836 106.469 89.7836" stroke="white" stroke-width="4.5" stroke-linecap="round" stroke-linejoin="round"/>
<path d="M93.0873 76.6396C94.057 76.6822 94.8769 75.9149 94.9187 74.9256C94.9606 73.9363 94.2085 73.0997 93.2388 73.057C92.2692 73.0143 91.4492 73.7817 91.4074 74.771C91.3656 75.7603 92.1177 76.5969 93.0873 76.6396Z" fill="white" stroke="white" stroke-width="4.5"/>
</svg>
